<svg xmlns="http://www.w3.org/2000/svg" width="500" height="500" viewBox="0 0 500 500" version="1.1"><path d="M 187.813 79.926 C 180.149 82.923, 176.213 85.856, 172.045 91.676 C 160.160 108.274, 166.234 131.123, 184.852 139.852 C 192.985 143.665, 204.122 143.599, 212.161 139.691 C 226.287 132.824, 233.644 115.707, 229.029 100.451 C 227.506 95.418, 222.232 88.042, 217.666 84.558 C 209.581 78.392, 196.806 76.410, 187.813 79.926 M 192.450 187.353 C 185.525 190.491, 180.447 199.821, 179.454 211.232 C 178.190 225.767, 182.157 237.966, 189.949 243.500 C 193.645 246.125, 195.005 246.495, 200.836 246.463 C 205.657 246.436, 208.625 245.834, 211.567 244.286 C 218.109 240.844, 218.163 240.565, 214.294 230.374 L 210.829 221.247 206.256 222.624 C 200.959 224.218, 192.250 224.426, 188.617 223.045 C 184.805 221.595, 182.459 217.441, 183.608 214.173 C 185.544 208.661, 195.673 206.493, 205.570 209.471 C 208.258 210.280, 210.741 210.618, 211.088 210.221 C 212.779 208.286, 217.126 193.971, 216.562 192.194 C 215.056 187.449, 199.246 184.275, 192.450 187.353 M 281.171 189.250 C 281.854 190.488, 286.483 203.581, 291.457 218.346 C 296.430 233.111, 300.938 245.182, 301.473 245.170 C 302.008 245.158, 306.380 233.303, 311.188 218.824 C 315.996 204.346, 320.396 191.719, 320.965 190.764 C 322.902 187.514, 322.095 187, 315.052 187 L 308.104 187 309.181 190.090 C 310.498 193.868, 309.751 212.649, 308.223 214.177 C 307.453 214.947, 306.862 214.147, 306.152 211.377 C 303.652 201.626, 302.796 196.032, 303.141 191.693 L 303.514 187 291.722 187 L 279.930 187 281.171 189.250" stroke="none" fill="#f3fbfb" fill-rule="evenodd"/><path d="M 191 65.025 C 171.893 67.526, 155.728 83.622, 152.704 103.157 C 149.020 126.956, 163.284 148.582, 187.154 155.388 C 199.938 159.033, 215.458 155.766, 225.912 147.229 C 234.463 140.245, 239.154 133.775, 242.027 125 C 243.961 119.091, 243.979 101.994, 242.057 96 C 237.799 82.718, 225.839 71.047, 211.500 66.182 C 207.234 64.735, 197.440 64.182, 191 65.025 M 275.084 64.694 C 269.085 65.497, 261.611 71.134, 258.640 77.094 L 256 82.393 256.022 110.446 C 256.046 141.543, 256.310 143.046, 262.892 149.642 C 269.472 156.237, 270.688 156.469, 300.421 156.797 C 326.118 157.080, 327.585 156.995, 332.698 154.920 C 339.860 152.013, 345.502 145.616, 347.028 138.670 C 347.770 135.294, 348.049 124.307, 347.832 107 C 347.529 82.844, 347.329 80.235, 345.568 77.500 C 342.336 72.482, 338.701 68.925, 334.500 66.669 C 330.725 64.642, 329.040 64.514, 304.500 64.379 C 290.200 64.301, 276.963 64.442, 275.084 64.694 M 187.813 79.926 C 180.149 82.923, 176.213 85.856, 172.045 91.676 C 160.160 108.274, 166.234 131.123, 184.852 139.852 C 192.985 143.665, 204.122 143.599, 212.161 139.691 C 226.287 132.824, 233.644 115.707, 229.029 100.451 C 227.506 95.418, 222.232 88.042, 217.666 84.558 C 209.581 78.392, 196.806 76.410, 187.813 79.926 M 171 167.900 C 164.162 169.350, 159.166 173.150, 154.432 180.500 C 152.664 183.246, 152.473 185.843, 152.180 211.135 C 151.978 228.658, 152.252 240.224, 152.931 242.745 C 154.556 248.779, 161.021 255.490, 167.570 257.940 C 172.577 259.814, 175.287 260, 197.523 260 C 225.639 260, 229.112 259.414, 235.780 253.545 C 243.745 246.534, 243.956 245.498, 243.956 213.500 C 243.956 188.377, 243.766 185.081, 242.103 181.421 C 239.820 176.394, 236.195 172.682, 230.699 169.744 C 226.685 167.599, 225.357 167.492, 200.500 167.329 C 186.200 167.235, 172.925 167.492, 171 167.900 M 274.500 167.893 C 266.934 169.841, 260.937 174.727, 257.897 181.421 C 256.234 185.081, 256.044 188.377, 256.044 213.500 C 256.044 238.524, 256.239 241.929, 257.878 245.539 C 260.365 251.012, 267.927 257.492, 273.451 258.883 C 276.117 259.555, 287.666 260, 302.405 260 C 324.713 260, 327.421 259.814, 332.430 257.940 C 338.979 255.490, 345.444 248.779, 347.069 242.745 C 347.748 240.224, 348.022 228.658, 347.820 211.135 C 347.527 185.843, 347.336 183.246, 345.568 180.500 C 342.337 175.483, 338.702 171.925, 334.500 169.668 C 330.726 167.640, 329 167.507, 304 167.320 C 289.425 167.210, 276.150 167.468, 274.500 167.893 M 192.450 187.353 C 185.525 190.491, 180.447 199.821, 179.454 211.232 C 178.190 225.767, 182.157 237.966, 189.949 243.500 C 193.645 246.125, 195.005 246.495, 200.836 246.463 C 205.657 246.436, 208.625 245.834, 211.567 244.286 C 218.109 240.844, 218.163 240.565, 214.294 230.374 L 210.829 221.247 206.256 222.624 C 200.959 224.218, 192.250 224.426, 188.617 223.045 C 184.805 221.595, 182.459 217.441, 183.608 214.173 C 185.544 208.661, 195.673 206.493, 205.570 209.471 C 208.258 210.280, 210.741 210.618, 211.088 210.221 C 212.779 208.286, 217.126 193.971, 216.562 192.194 C 215.056 187.449, 199.246 184.275, 192.450 187.353 M 281.171 189.250 C 281.854 190.488, 286.483 203.581, 291.457 218.346 C 296.430 233.111, 300.938 245.182, 301.473 245.170 C 302.008 245.158, 306.380 233.303, 311.188 218.824 C 315.996 204.346, 320.396 191.719, 320.965 190.764 C 322.902 187.514, 322.095 187, 315.052 187 L 308.104 187 309.181 190.090 C 310.498 193.868, 309.751 212.649, 308.223 214.177 C 307.453 214.947, 306.862 214.147, 306.152 211.377 C 303.652 201.626, 302.796 196.032, 303.141 191.693 L 303.514 187 291.722 187 L 279.930 187 281.171 189.250 M 56.459 277.250 C 56.196 277.938, 56.098 305.275, 56.241 338 L 56.500 397.500 72.500 397.814 C 95.024 398.256, 102.646 396.455, 109.267 389.126 C 114.229 383.634, 116 376.717, 116 362.832 C 116 348.509, 114.053 342.299, 107.783 336.623 L 103.500 332.745 107.500 328.606 C 112.445 323.488, 114 318.087, 114 306.023 C 114 290.224, 108.447 280.992, 96.878 277.556 C 90.055 275.530, 57.212 275.281, 56.459 277.250 M 119 326.881 C 119 376.196, 119.067 377.990, 121.071 382.666 C 124.077 389.679, 127.144 393.245, 132.567 396.034 C 136.735 398.178, 138.676 398.498, 147.430 398.488 C 159.523 398.475, 165.157 396.271, 170.025 389.652 C 175.890 381.677, 176 380.497, 176 325.781 L 176 275.925 166.750 276.212 L 157.500 276.500 156.968 327 C 156.675 354.775, 156.337 377.561, 156.218 377.636 C 150.497 381.212, 143.480 381.488, 140.786 378.243 C 139.791 377.045, 139.387 365.350, 139 326.597 L 138.500 276.500 128.750 276.214 L 119 275.928 119 326.881 M 181.473 277.214 C 181.203 277.921, 181.098 305.275, 181.241 338 L 181.500 397.500 191.500 397.500 L 201.500 397.500 201.500 337 L 201.500 276.500 191.733 276.214 C 184.480 276.001, 181.839 276.258, 181.473 277.214 M 207.473 277.214 C 207.203 277.921, 207.098 305.275, 207.241 338 L 207.500 397.500 232.750 397.767 L 258 398.034 258 389.017 L 258 380 243.009 380 L 228.018 380 227.759 328.250 L 227.500 276.500 217.733 276.214 C 210.480 276.001, 207.839 276.258, 207.473 277.214 M 259.489 277.174 C 259.209 277.903, 259.098 305.275, 259.241 338 L 259.500 397.500 275.500 397.803 C 284.735 397.978, 294.016 397.623, 297.450 396.964 C 304.539 395.602, 310.912 391.509, 313.944 386.371 C 318.709 378.294, 319.136 373.708, 318.797 334.255 C 318.490 298.589, 318.412 297.330, 316.177 291.774 C 313.601 285.367, 307.898 279.732, 302.065 277.828 C 300.079 277.180, 289.972 276.484, 279.248 276.256 C 263.887 275.930, 259.893 276.115, 259.489 277.174 M 323 337 L 323 398 349 398 L 375 398 375 389 L 375 380 359 380 L 343 380 343 362.500 L 343 345 356 345 L 369 345 369 336 L 369 327 356 327 L 343 327 343 311.025 L 343 295.051 358.750 294.775 L 374.500 294.500 374.788 285.250 L 375.075 276 349.038 276 L 323 276 323 337 M 380 336.924 L 380 398 389.500 398 L 399 398 399 373.500 L 399 349 404.944 349 C 409.778 349, 411.410 349.449, 413.680 351.401 L 416.472 353.803 417.165 373.889 C 417.546 384.936, 418.145 394.881, 418.496 395.988 C 419.080 397.828, 419.993 398, 429.184 398 L 439.233 398 438.530 395.250 C 438.143 393.738, 437.524 383.275, 437.155 372 C 436.600 355.057, 436.165 350.857, 434.648 347.793 C 432.627 343.710, 428.339 339, 426.643 339 C 426.046 339, 427.183 337.422, 429.168 335.494 C 435.481 329.362, 436.460 326.193, 436.826 310.699 C 437.294 290.920, 434.293 283.634, 423.713 278.864 C 418.931 276.708, 416.909 276.486, 399.250 276.180 L 380 275.847 380 336.924 M 79.250 294.685 C 77.037 295.132, 77 295.387, 77 310.070 L 77 325 82.444 325 C 86.758 325, 88.471 324.499, 90.694 322.587 C 93.439 320.226, 93.500 319.944, 93.500 309.614 C 93.500 300.366, 93.252 298.816, 91.500 297.123 C 89.435 295.128, 83.201 293.887, 79.250 294.685 M 402.250 294.727 L 399 295.127 399 312.563 L 399 330 405.311 330 C 410.269 330, 412.090 329.565, 413.799 327.972 C 416.821 325.157, 417.230 322.751, 416.840 310.097 C 416.548 300.623, 416.215 298.779, 414.500 297.139 C 412.330 295.065, 407.397 294.094, 402.250 294.727 M 279.239 337.250 L 279.500 379.500 286.254 379.420 C 291.898 379.354, 293.419 378.955, 295.504 376.996 L 298 374.651 298 336.826 C 298 292.042, 298.814 295, 286.489 295 L 278.978 295 279.239 337.250 M 77 362.137 L 77 380.274 83.500 379.752 C 95.099 378.821, 96.780 375.812, 95.754 357.823 C 95.325 350.295, 94.883 348.505, 92.948 346.445 C 90.947 344.315, 89.772 344, 83.826 344 L 77 344 77 362.137" stroke="none" fill="#07d2bb" fill-rule="evenodd"/></svg>